<svg width="121" height="115" viewBox="0 0 121 115" fill="none" xmlns="http://www.w3.org/2000/svg">
<path fill-rule="evenodd" clip-rule="evenodd" d="M57.0956 55.009C50.7357 55.009 45.5661 50.6188 45.5661 45.2253C45.5661 39.8284 50.7396 35.4383 57.0956 35.4383C63.4516 35.4383 68.625 39.8284 68.625 45.2219C68.625 50.6188 63.4515 55.009 57.0956 55.009ZM57.0956 37.6894C52.1982 37.6894 48.215 41.0695 48.215 45.2253C48.215 49.3811 52.1982 52.7612 57.0956 52.7612C61.9929 52.7612 65.9761 49.3811 65.9761 45.2253C65.9761 41.0695 61.9929 37.6894 57.0956 37.6894Z" fill="#E60004" fill-opacity="0.88"/>
<path fill-rule="evenodd" clip-rule="evenodd" d="M57.0956 83.0857C56.3643 83.0857 55.7691 82.5806 55.7691 81.9601V53.8825C55.7691 53.262 56.3643 52.757 57.0956 52.757C57.8269 52.757 58.422 53.262 58.422 53.8825V81.9601C58.422 82.5807 57.8307 83.0857 57.0956 83.0857Z" fill="#E60004" fill-opacity="0.88"/>
<path fill-rule="evenodd" clip-rule="evenodd" d="M74.9225 61.4751C74.584 61.4751 74.2456 61.3661 73.985 61.145L63.3737 52.1404C62.8563 51.7014 62.8563 50.9884 63.3737 50.5494C63.8911 50.1104 64.7313 50.1104 65.2486 50.5494L75.8599 59.554C76.3772 59.993 76.3772 60.706 75.8599 61.145C75.6032 61.3629 75.2609 61.4751 74.9225 61.4751Z" fill="#E60004" fill-opacity="0.88"/>
<path fill-rule="evenodd" clip-rule="evenodd" d="M64.3112 40.2245C63.9727 40.2245 63.6343 40.1156 63.3737 39.8944C62.8563 39.4554 62.8563 38.7424 63.3737 38.3034L86.7711 18.4521C87.2885 18.0131 88.1287 18.0131 88.646 18.4521C89.1634 18.8911 89.1634 19.6041 88.646 20.0431L65.2486 39.8978C64.9919 40.1156 64.6496 40.2279 64.3111 40.2279L64.3112 40.2245Z" fill="#E60004" fill-opacity="0.88"/>
<path fill-rule="evenodd" clip-rule="evenodd" d="M49.88 40.2245C49.5416 40.2245 49.2031 40.1155 48.9425 39.8944L33.8262 27.0669C33.3088 26.6279 33.3088 25.9149 33.8262 25.4759C34.3435 25.0369 35.1838 25.0369 35.7011 25.4759L50.8174 38.3034C51.3348 38.7424 51.3348 39.4554 50.8174 39.8944C50.5568 40.1122 50.2184 40.2212 49.88 40.2212L49.88 40.2245Z" fill="#E60004" fill-opacity="0.88"/>
<path fill-rule="evenodd" clip-rule="evenodd" d="M46.8886 46.3475H29.7339C29.0026 46.3475 28.4074 45.8425 28.4074 45.222C28.4074 44.6014 29.0026 44.0964 29.7339 44.0964H46.8886C47.6199 44.0964 48.215 44.6014 48.215 45.222C48.215 45.8425 47.6198 46.3475 46.8886 46.3475Z" fill="#E60004" fill-opacity="0.88"/>
<path fill-rule="evenodd" clip-rule="evenodd" d="M26.4825 72.3252C26.1441 72.3252 25.8057 72.2162 25.5451 71.9951C25.0277 71.5561 25.0277 70.8431 25.5451 70.4041L48.9425 50.5494C49.4599 50.1104 50.3001 50.1104 50.8174 50.5494C51.3348 50.9884 51.3348 51.7014 50.8174 52.1404L27.42 71.9951C27.1594 72.2162 26.821 72.3252 26.4825 72.3252Z" fill="#E60004" fill-opacity="0.88"/>
<path fill-rule="evenodd" clip-rule="evenodd" d="M57.0956 93.6256C52.9412 93.6256 49.5609 90.7572 49.5609 87.2319C49.5609 83.7065 52.9412 80.8381 57.0956 80.8381C61.25 80.8381 64.6302 83.7065 64.6302 87.2319C64.6302 90.7572 61.25 93.6256 57.0956 93.6256ZM57.0956 83.0857C54.3999 83.0857 52.21 84.9441 52.21 87.2315C52.21 89.519 54.3999 91.3774 57.0956 91.3774C59.7912 91.3774 61.9812 89.519 61.9812 87.2315C61.9812 84.9441 59.7912 83.0857 57.0956 83.0857Z" fill="#E60004" fill-opacity="0.88"/>
<path fill-rule="evenodd" clip-rule="evenodd" d="M79.3149 70.4704C75.1605 70.4704 71.7803 67.6019 71.7803 64.0766C71.7803 60.5512 75.1605 57.6828 79.3149 57.6828C83.4693 57.6828 86.8496 60.5512 86.8496 64.0766C86.8496 67.6019 83.4693 70.4704 79.3149 70.4704ZM79.3149 59.9304C76.6193 59.9304 74.4293 61.7921 74.4293 64.0762C74.4293 66.3604 76.6193 68.2221 79.3149 68.2221C82.0106 68.2221 84.2006 66.3637 84.2006 64.0762C84.2006 61.7888 82.0106 59.9304 79.3149 59.9304Z" fill="#E60004" fill-opacity="0.88"/>
<path fill-rule="evenodd" clip-rule="evenodd" d="M22.0911 81.3204C17.9367 81.3204 14.5564 78.452 14.5564 74.9267C14.5564 71.4013 17.9367 68.5329 22.0911 68.5329C26.2454 68.5329 29.6257 71.4013 29.6257 74.9267C29.6257 78.452 26.2454 81.3204 22.0911 81.3204ZM22.0911 70.7805C19.3954 70.7805 17.2054 72.6388 17.2054 74.9263C17.2054 77.2138 19.3954 79.0722 22.0911 79.0722C24.7867 79.0722 26.9767 77.2138 26.9767 74.9263C26.9767 72.6421 24.7867 70.7805 22.0911 70.7805Z" fill="#E60004" fill-opacity="0.88"/>
<path fill-rule="evenodd" clip-rule="evenodd" d="M23.522 51.6187C19.3676 51.6187 15.9874 48.7503 15.9874 45.225C15.9874 41.6996 19.3676 38.8312 23.522 38.8312C27.6764 38.8312 31.0567 41.6996 31.0567 45.225C31.0567 48.7503 27.6764 51.6187 23.522 51.6187ZM23.522 41.0788C20.8264 41.0788 18.6364 42.9371 18.6364 45.2246C18.6364 47.5121 20.8264 49.3705 23.522 49.3705C26.2177 49.3705 28.4076 47.5121 28.4076 45.2246C28.4076 42.9371 26.2177 41.0788 23.522 41.0788Z" fill="#E60004" fill-opacity="0.88"/>
<path fill-rule="evenodd" clip-rule="evenodd" d="M30.3721 28.9384C26.2177 28.9384 22.8375 26.0699 22.8375 22.5446C22.8375 19.0192 26.2177 16.1508 30.3721 16.1508C34.5265 16.1508 37.9068 19.0192 37.9068 22.5446C37.9068 26.0699 34.5265 28.9384 30.3721 28.9384ZM30.3721 18.3984C27.6765 18.3984 25.4865 20.2568 25.4865 22.5443C25.4865 24.8317 27.6765 26.6901 30.3721 26.6901C33.0678 26.6901 35.2578 24.8317 35.2578 22.5443C35.2578 20.2601 33.0678 18.3984 30.3721 18.3984Z" fill="#E60004" fill-opacity="0.88"/>
<path fill-rule="evenodd" clip-rule="evenodd" d="M92.1001 21.9145C87.9457 21.9145 84.5655 19.0461 84.5655 15.5208C84.5655 11.9954 87.9457 9.12698 92.1001 9.12698C96.2545 9.12698 99.6348 11.9954 99.6348 15.5208C99.6348 19.0461 96.2545 21.9145 92.1001 21.9145ZM92.1001 11.3746C89.4045 11.3746 87.2145 13.2329 87.2145 15.5204C87.2145 17.8079 89.4045 19.6663 92.1001 19.6663C94.7958 19.6663 96.9857 17.8079 96.9857 15.5204C96.9857 13.2329 94.7958 11.3746 92.1001 11.3746Z" fill="#E60004" fill-opacity="0.88"/>
<path fill-rule="evenodd" clip-rule="evenodd" d="M95.0726 47.2153C91.914 47.2153 89.3428 45.0335 89.3428 42.3532C89.3428 39.6728 91.914 37.491 95.0726 37.491C98.2312 37.491 100.802 39.6728 100.802 42.3532C100.802 45.0335 98.2312 47.2153 95.0726 47.2153ZM95.0726 39.7421C93.3766 39.7421 91.9957 40.9139 91.9957 42.3565C91.9957 43.7956 93.3766 44.9674 95.0726 44.9674C96.7685 44.9674 98.1534 43.7956 98.1534 42.3565C98.1534 40.914 96.7725 39.7421 95.0726 39.7421Z" fill="#E60004" fill-opacity="0.88"/>
<path fill-rule="evenodd" clip-rule="evenodd" d="M59.2117 23.8023C56.0531 23.8023 53.4819 21.6205 53.4819 18.9401C53.4819 16.2598 56.0531 14.078 59.2117 14.078C62.3703 14.078 64.9414 16.2598 64.9414 18.9401C64.9414 21.6205 62.3703 23.8023 59.2117 23.8023ZM59.2117 16.3291C57.5157 16.3291 56.1348 17.5009 56.1348 18.9401C56.1348 20.3792 57.5157 21.5544 59.2117 21.5544C60.9076 21.5544 62.2885 20.3826 62.2885 18.9401C62.2885 17.5009 60.9076 16.3291 59.2117 16.3291Z" fill="#E60004" fill-opacity="0.88"/>
<path fill-rule="evenodd" clip-rule="evenodd" d="M89.4283 87.8026C86.2698 87.8026 83.6986 85.6208 83.6986 82.9404C83.6986 80.2601 86.2698 78.0782 89.4283 78.0782C92.5869 78.0782 95.1581 80.2601 95.1581 82.9404C95.1581 85.6208 92.5869 87.8026 89.4283 87.8026ZM89.4283 80.3294C87.7324 80.3294 86.3515 81.5012 86.3515 82.9403C86.3515 84.3795 87.7324 85.5513 89.4283 85.5513C91.1243 85.5513 92.5052 84.3795 92.5052 82.9403C92.5052 81.5012 91.1243 80.3294 89.4283 80.3294Z" fill="#E60004" fill-opacity="0.88"/>
<path fill-rule="evenodd" clip-rule="evenodd" d="M51.7899 46.3475C51.0586 46.3475 50.4635 45.8425 50.4635 45.222C50.4635 42.1191 53.4393 39.5973 57.0918 39.5973C57.8231 39.5973 58.4182 40.1024 58.4182 40.7229C58.4182 41.3434 57.8231 41.8485 57.0918 41.8485C54.8979 41.8485 53.1125 43.3636 53.1125 45.2253C53.1125 45.8458 52.5173 46.3508 51.7861 46.3508L51.7899 46.3475Z" fill="#E60004" fill-opacity="0.88"/>
</svg>
