<svg width="469" height="88" viewBox="0 0 469 88" fill="none" xmlns="http://www.w3.org/2000/svg">
<path d="M150.875 31.1591H142.375C142.133 29.7652 141.686 28.5303 141.035 27.4545C140.383 26.3636 139.572 25.4394 138.603 24.6818C137.633 23.9242 136.527 23.3561 135.285 22.9773C134.057 22.5833 132.731 22.3864 131.307 22.3864C128.777 22.3864 126.535 23.0227 124.58 24.2955C122.625 25.553 121.095 27.4015 119.989 29.8409C118.883 32.2652 118.33 35.2273 118.33 38.7273C118.33 42.2879 118.883 45.2879 119.989 47.7273C121.11 50.1515 122.641 51.9848 124.58 53.2273C126.535 54.4545 128.769 55.0682 131.285 55.0682C132.678 55.0682 133.981 54.8864 135.194 54.5227C136.421 54.1439 137.519 53.5909 138.489 52.8636C139.474 52.1364 140.3 51.2424 140.966 50.1818C141.648 49.1212 142.118 47.9091 142.375 46.5455L150.875 46.5909C150.557 48.803 149.868 50.8788 148.807 52.8182C147.762 54.7576 146.391 56.4697 144.694 57.9545C142.997 59.4242 141.012 60.5758 138.739 61.4091C136.466 62.2273 133.944 62.6364 131.171 62.6364C127.08 62.6364 123.428 61.6894 120.216 59.7955C117.004 57.9015 114.474 55.1667 112.625 51.5909C110.777 48.0152 109.853 43.7273 109.853 38.7273C109.853 33.7121 110.785 29.4242 112.648 25.8636C114.512 22.2879 117.05 19.553 120.262 17.6591C123.474 15.7651 127.11 14.8182 131.171 14.8182C133.762 14.8182 136.171 15.1818 138.398 15.9091C140.625 16.6364 142.61 17.7045 144.353 19.1136C146.095 20.5076 147.527 22.2197 148.648 24.25C149.785 26.2652 150.527 28.5682 150.875 31.1591ZM158.233 62V27.0909H166.211V32.9091H166.574C167.211 30.8939 168.302 29.3409 169.847 28.25C171.408 27.1439 173.188 26.5909 175.188 26.5909C175.642 26.5909 176.15 26.6136 176.711 26.6591C177.286 26.6894 177.764 26.7424 178.142 26.8182V34.3864C177.794 34.2652 177.241 34.1591 176.483 34.0682C175.741 33.9621 175.021 33.9091 174.324 33.9091C172.824 33.9091 171.476 34.2348 170.279 34.8864C169.097 35.5227 168.165 36.4091 167.483 37.5455C166.802 38.6818 166.461 39.9924 166.461 41.4773V62H158.233ZM193.029 62.7045C190.817 62.7045 188.824 62.3106 187.052 61.5227C185.294 60.7197 183.9 59.5379 182.87 57.9773C181.855 56.4167 181.347 54.4924 181.347 52.2045C181.347 50.2348 181.711 48.6061 182.438 47.3182C183.165 46.0303 184.158 45 185.415 44.2273C186.673 43.4545 188.089 42.8712 189.665 42.4773C191.256 42.0682 192.9 41.7727 194.597 41.5909C196.642 41.3788 198.302 41.1894 199.574 41.0227C200.847 40.8409 201.771 40.5682 202.347 40.2045C202.938 39.8258 203.233 39.2424 203.233 38.4545V38.3182C203.233 36.6061 202.726 35.2803 201.711 34.3409C200.695 33.4015 199.233 32.9318 197.324 32.9318C195.309 32.9318 193.711 33.3712 192.529 34.25C191.362 35.1288 190.574 36.1667 190.165 37.3636L182.483 36.2727C183.089 34.1515 184.089 32.3788 185.483 30.9545C186.877 29.5151 188.582 28.4394 190.597 27.7273C192.612 27 194.839 26.6364 197.279 26.6364C198.961 26.6364 200.635 26.8333 202.302 27.2273C203.968 27.6212 205.491 28.2727 206.87 29.1818C208.249 30.0758 209.355 31.2955 210.188 32.8409C211.036 34.3864 211.461 36.3182 211.461 38.6364V62H203.552V57.2045H203.279C202.779 58.1742 202.074 59.0833 201.165 59.9318C200.271 60.7652 199.142 61.4394 197.779 61.9545C196.43 62.4545 194.847 62.7045 193.029 62.7045ZM195.165 56.6591C196.817 56.6591 198.249 56.3333 199.461 55.6818C200.673 55.0152 201.605 54.1364 202.256 53.0455C202.923 51.9545 203.256 50.7652 203.256 49.4773V45.3636C202.999 45.5758 202.559 45.7727 201.938 45.9545C201.332 46.1364 200.65 46.2955 199.892 46.4318C199.135 46.5682 198.385 46.6894 197.642 46.7955C196.9 46.9015 196.256 46.9924 195.711 47.0682C194.483 47.2348 193.385 47.5076 192.415 47.8864C191.445 48.2652 190.68 48.7955 190.12 49.4773C189.559 50.1439 189.279 51.0076 189.279 52.0682C189.279 53.5833 189.832 54.7273 190.938 55.5C192.044 56.2727 193.453 56.6591 195.165 56.6591ZM226.938 62L217.074 27.0909H225.461L231.597 51.6364H231.915L238.188 27.0909H246.483L252.756 51.5H253.097L259.142 27.0909H267.552L257.665 62H249.097L242.552 38.4091H242.074L235.529 62H226.938ZM281.523 15.4545V62H273.296V15.4545H281.523ZM298.211 15.4545V62H289.983V15.4545H298.211ZM311.785 75.0909C310.663 75.0909 309.625 75 308.671 74.8182C307.731 74.6515 306.981 74.4545 306.421 74.2273L308.33 67.8182C309.527 68.1667 310.595 68.3333 311.535 68.3182C312.474 68.303 313.3 68.0076 314.012 67.4318C314.739 66.8712 315.353 65.9318 315.853 64.6136L316.557 62.7273L303.898 27.0909H312.625L320.671 53.4545H321.035L329.103 27.0909H337.853L323.875 66.2273C323.224 68.0758 322.36 69.6591 321.285 70.9773C320.209 72.3106 318.891 73.3258 317.33 74.0227C315.785 74.7348 313.936 75.0909 311.785 75.0909ZM360.978 27.0909V33.4545H340.91V27.0909H360.978ZM345.864 18.7273H354.091V51.5C354.091 52.6061 354.258 53.4545 354.591 54.0455C354.94 54.6212 355.394 55.0152 355.955 55.2273C356.516 55.4394 357.137 55.5455 357.819 55.5455C358.334 55.5455 358.803 55.5076 359.228 55.4318C359.667 55.3561 360 55.2879 360.228 55.2273L361.614 61.6591C361.175 61.8106 360.546 61.9773 359.728 62.1591C358.925 62.3409 357.94 62.447 356.773 62.4773C354.713 62.5379 352.856 62.2273 351.205 61.5455C349.553 60.8485 348.243 59.7727 347.273 58.3182C346.319 56.8636 345.849 55.0455 345.864 52.8636V18.7273ZM367.858 62V27.0909H376.086V62H367.858ZM371.995 22.1364C370.692 22.1364 369.57 21.7045 368.631 20.8409C367.692 19.9621 367.222 18.9091 367.222 17.6818C367.222 16.4394 367.692 15.3864 368.631 14.5227C369.57 13.6439 370.692 13.2045 371.995 13.2045C373.313 13.2045 374.434 13.6439 375.358 14.5227C376.298 15.3864 376.767 16.4394 376.767 17.6818C376.767 18.9091 376.298 19.9621 375.358 20.8409C374.434 21.7045 373.313 22.1364 371.995 22.1364ZM399.773 62.6818C396.288 62.6818 393.296 61.9167 390.796 60.3864C388.311 58.8561 386.394 56.7424 385.046 54.0455C383.713 51.3333 383.046 48.2121 383.046 44.6818C383.046 41.1364 383.728 38.0076 385.091 35.2955C386.455 32.5682 388.379 30.447 390.864 28.9318C393.364 27.4015 396.319 26.6364 399.728 26.6364C402.561 26.6364 405.069 27.1591 407.25 28.2045C409.447 29.2348 411.197 30.697 412.5 32.5909C413.803 34.4697 414.546 36.6667 414.728 39.1818H406.864C406.546 37.5 405.788 36.0985 404.591 34.9773C403.41 33.8409 401.826 33.2727 399.841 33.2727C398.16 33.2727 396.682 33.7273 395.41 34.6364C394.137 35.5303 393.144 36.8182 392.432 38.5C391.735 40.1818 391.387 42.197 391.387 44.5455C391.387 46.9242 391.735 48.9697 392.432 50.6818C393.129 52.3788 394.106 53.6894 395.364 54.6136C396.637 55.5227 398.129 55.9773 399.841 55.9773C401.053 55.9773 402.137 55.75 403.091 55.2955C404.061 54.8258 404.872 54.1515 405.523 53.2727C406.175 52.3939 406.622 51.3258 406.864 50.0682H414.728C414.531 52.5379 413.803 54.7273 412.546 56.6364C411.288 58.5303 409.576 60.0152 407.41 61.0909C405.243 62.1515 402.697 62.6818 399.773 62.6818ZM449.074 36.3182L441.574 37.1364C441.362 36.3788 440.991 35.6667 440.461 35C439.945 34.3333 439.249 33.7955 438.37 33.3864C437.491 32.9773 436.415 32.7727 435.142 32.7727C433.43 32.7727 431.991 33.1439 430.824 33.8864C429.673 34.6288 429.105 35.5909 429.12 36.7727C429.105 37.7879 429.476 38.6136 430.233 39.25C431.006 39.8864 432.279 40.4091 434.052 40.8182L440.006 42.0909C443.309 42.803 445.764 43.9318 447.37 45.4773C448.991 47.0227 449.809 49.0455 449.824 51.5455C449.809 53.7424 449.165 55.6818 447.892 57.3636C446.635 59.0303 444.885 60.3333 442.642 61.2727C440.4 62.2121 437.824 62.6818 434.915 62.6818C430.642 62.6818 427.203 61.7879 424.597 60C421.991 58.197 420.438 55.6894 419.938 52.4773L427.961 51.7045C428.324 53.2803 429.097 54.4697 430.279 55.2727C431.461 56.0758 432.999 56.4773 434.892 56.4773C436.847 56.4773 438.415 56.0758 439.597 55.2727C440.794 54.4697 441.392 53.4773 441.392 52.2955C441.392 51.2955 441.006 50.4697 440.233 49.8182C439.476 49.1667 438.294 48.6667 436.688 48.3182L430.733 47.0682C427.385 46.3712 424.908 45.197 423.302 43.5455C421.695 41.8788 420.9 39.7727 420.915 37.2273C420.9 35.0758 421.483 33.2121 422.665 31.6364C423.862 30.0455 425.521 28.8182 427.642 27.9545C429.779 27.0758 432.241 26.6364 435.029 26.6364C439.12 26.6364 442.339 27.5076 444.688 29.25C447.052 30.9924 448.514 33.3485 449.074 36.3182Z" fill="#1E1E1E"/>
<path d="M459.739 62.5C458.36 62.5 457.178 62.0152 456.194 61.0455C455.209 60.0758 454.724 58.8939 454.739 57.5C454.724 56.1364 455.209 54.9697 456.194 54C457.178 53.0303 458.36 52.5455 459.739 52.5455C461.072 52.5455 462.231 53.0303 463.216 54C464.216 54.9697 464.724 56.1364 464.739 57.5C464.724 58.4242 464.481 59.2652 464.012 60.0227C463.557 60.7803 462.951 61.3864 462.194 61.8409C461.451 62.2803 460.633 62.5 459.739 62.5Z" fill="#E60004" fill-opacity="0.88"/>
<path fill-rule="evenodd" clip-rule="evenodd" d="M42.5392 49.009C36.1793 49.009 31.0097 44.6188 31.0097 39.2253C31.0097 33.8284 36.1832 29.4383 42.5392 29.4383C48.8952 29.4383 54.0686 33.8284 54.0686 39.2219C54.0686 44.6188 48.8951 49.009 42.5392 49.009ZM42.5392 31.6894C37.6418 31.6894 33.6586 35.0695 33.6586 39.2253C33.6586 43.3811 37.6418 46.7612 42.5392 46.7612C47.4365 46.7612 51.4197 43.3811 51.4197 39.2253C51.4197 35.0695 47.4365 31.6894 42.5392 31.6894Z" fill="#E60004" fill-opacity="0.88"/>
<path fill-rule="evenodd" clip-rule="evenodd" d="M42.5392 77.0856C41.8079 77.0856 41.2128 76.5806 41.2128 75.9601V47.8825C41.2128 47.262 41.8079 46.757 42.5392 46.757C43.2705 46.757 43.8656 47.262 43.8656 47.8825V75.9601C43.8656 76.5806 43.2743 77.0856 42.5392 77.0856Z" fill="#E60004" fill-opacity="0.88"/>
<path fill-rule="evenodd" clip-rule="evenodd" d="M60.3661 55.4751C60.0276 55.4751 59.6892 55.3661 59.4286 55.145L48.8173 46.1404C48.3 45.7014 48.3 44.9884 48.8173 44.5494C49.3347 44.1104 50.1749 44.1104 50.6922 44.5494L61.3035 53.554C61.8209 53.993 61.8209 54.706 61.3035 55.145C61.0468 55.3629 60.7045 55.4751 60.3661 55.4751Z" fill="#E60004" fill-opacity="0.88"/>
<path fill-rule="evenodd" clip-rule="evenodd" d="M49.7548 34.2245C49.4163 34.2245 49.0779 34.1156 48.8173 33.8944C48.3 33.4554 48.3 32.7424 48.8173 32.3034L72.2147 12.4521C72.7321 12.0131 73.5723 12.0131 74.0896 12.4521C74.607 12.8911 74.607 13.6041 74.0896 14.0431L50.6922 33.8978C50.4355 34.1156 50.0932 34.2279 49.7547 34.2279L49.7548 34.2245Z" fill="#E60004" fill-opacity="0.88"/>
<path fill-rule="evenodd" clip-rule="evenodd" d="M35.3236 34.2245C34.9852 34.2245 34.6467 34.1155 34.3861 33.8944L19.2698 21.0669C18.7525 20.6279 18.7525 19.9149 19.2698 19.4759C19.7872 19.0369 20.6274 19.0369 21.1447 19.4759L36.261 32.3034C36.7784 32.7424 36.7784 33.4554 36.261 33.8944C36.0004 34.1122 35.662 34.2212 35.3236 34.2212L35.3236 34.2245Z" fill="#E60004" fill-opacity="0.88"/>
<path fill-rule="evenodd" clip-rule="evenodd" d="M32.3322 40.3475H15.1775C14.4462 40.3475 13.851 39.8425 13.851 39.222C13.851 38.6014 14.4462 38.0964 15.1775 38.0964H32.3322C33.0635 38.0964 33.6586 38.6014 33.6586 39.222C33.6586 39.8425 33.0634 40.3475 32.3322 40.3475Z" fill="#E60004" fill-opacity="0.88"/>
<path fill-rule="evenodd" clip-rule="evenodd" d="M11.9262 66.3252C11.5877 66.3252 11.2493 66.2162 10.9887 65.9951C10.4713 65.5561 10.4713 64.8431 10.9887 64.4041L34.3861 44.5494C34.9035 44.1104 35.7437 44.1104 36.261 44.5494C36.7784 44.9884 36.7784 45.7014 36.261 46.1404L12.8636 65.9951C12.603 66.2162 12.2646 66.3252 11.9262 66.3252Z" fill="#E60004" fill-opacity="0.88"/>
<path fill-rule="evenodd" clip-rule="evenodd" d="M42.5392 87.6257C38.3848 87.6257 35.0045 84.7572 35.0045 81.2319C35.0045 77.7065 38.3848 74.8381 42.5392 74.8381C46.6936 74.8381 50.0738 77.7065 50.0738 81.2319C50.0738 84.7572 46.6936 87.6257 42.5392 87.6257ZM42.5392 77.0857C39.8435 77.0857 37.6536 78.9441 37.6536 81.2315C37.6536 83.519 39.8435 85.3774 42.5392 85.3774C45.2348 85.3774 47.4248 83.519 47.4248 81.2315C47.4248 78.9441 45.2348 77.0857 42.5392 77.0857Z" fill="#E60004" fill-opacity="0.88"/>
<path fill-rule="evenodd" clip-rule="evenodd" d="M64.7585 64.4704C60.6041 64.4704 57.2239 61.6019 57.2239 58.0766C57.2239 54.5512 60.6041 51.6828 64.7585 51.6828C68.9129 51.6828 72.2932 54.5512 72.2932 58.0766C72.2932 61.6019 68.9129 64.4704 64.7585 64.4704ZM64.7585 53.9304C62.0629 53.9304 59.8729 55.7921 59.8729 58.0762C59.8729 60.3604 62.0629 62.2221 64.7585 62.2221C67.4542 62.2221 69.6442 60.3637 69.6442 58.0762C69.6442 55.7888 67.4542 53.9304 64.7585 53.9304Z" fill="#E60004" fill-opacity="0.88"/>
<path fill-rule="evenodd" clip-rule="evenodd" d="M7.53466 75.3204C3.38026 75.3204 0 72.452 0 68.9267C0 65.4013 3.38026 62.5329 7.53466 62.5329C11.6891 62.5329 15.0693 65.4013 15.0693 68.9267C15.0693 72.452 11.6891 75.3204 7.53466 75.3204ZM7.53466 64.7805C4.83901 64.7805 2.64904 66.6388 2.64904 68.9263C2.64904 71.2138 4.83901 73.0722 7.53466 73.0722C10.2303 73.0722 12.4203 71.2138 12.4203 68.9263C12.4203 66.6421 10.2303 64.7805 7.53466 64.7805Z" fill="#E60004" fill-opacity="0.88"/>
<path fill-rule="evenodd" clip-rule="evenodd" d="M8.96563 45.6187C4.81123 45.6187 1.43097 42.7503 1.43097 39.225C1.43097 35.6996 4.81123 32.8312 8.96563 32.8312C13.12 32.8312 16.5003 35.6996 16.5003 39.225C16.5003 42.7503 13.12 45.6187 8.96563 45.6187ZM8.96563 35.0788C6.26998 35.0788 4.08001 36.9371 4.08001 39.2246C4.08001 41.5121 6.26998 43.3705 8.96563 43.3705C11.6613 43.3705 13.8512 41.5121 13.8512 39.2246C13.8512 36.9371 11.6613 35.0788 8.96563 35.0788Z" fill="#E60004" fill-opacity="0.88"/>
<path fill-rule="evenodd" clip-rule="evenodd" d="M15.8157 22.9384C11.6613 22.9384 8.28107 20.0699 8.28107 16.5446C8.28107 13.0192 11.6613 10.1508 15.8157 10.1508C19.9701 10.1508 23.3504 13.0192 23.3504 16.5446C23.3504 20.0699 19.9701 22.9384 15.8157 22.9384ZM15.8157 12.3984C13.1201 12.3984 10.9301 14.2568 10.9301 16.5443C10.9301 18.8317 13.1201 20.6901 15.8157 20.6901C18.5114 20.6901 20.7013 18.8317 20.7013 16.5443C20.7013 14.2601 18.5114 12.3984 15.8157 12.3984Z" fill="#E60004" fill-opacity="0.88"/>
<path fill-rule="evenodd" clip-rule="evenodd" d="M77.5437 15.9145C73.3893 15.9145 70.0091 13.0461 70.0091 9.52076C70.0091 5.99541 73.3893 3.12698 77.5437 3.12698C81.6981 3.12698 85.0784 5.99541 85.0784 9.52076C85.0784 13.0461 81.6981 15.9145 77.5437 15.9145ZM77.5437 5.37457C74.8481 5.37457 72.6581 7.23295 72.6581 9.52042C72.6581 11.8079 74.8481 13.6663 77.5437 13.6663C80.2394 13.6663 82.4293 11.8079 82.4293 9.52042C82.4293 7.23295 80.2394 5.37457 77.5437 5.37457Z" fill="#E60004" fill-opacity="0.88"/>
<path fill-rule="evenodd" clip-rule="evenodd" d="M80.5162 41.2153C77.3576 41.2153 74.7864 39.0335 74.7864 36.3532C74.7864 33.6728 77.3576 31.491 80.5162 31.491C83.6748 31.491 86.2459 33.6728 86.2459 36.3532C86.2459 39.0335 83.6748 41.2153 80.5162 41.2153ZM80.5162 33.7421C78.8202 33.7421 77.4393 34.9139 77.4393 36.3565C77.4393 37.7956 78.8202 38.9674 80.5162 38.9674C82.2121 38.9674 83.597 37.7956 83.597 36.3565C83.597 34.914 82.2161 33.7421 80.5162 33.7421Z" fill="#E60004" fill-opacity="0.88"/>
<path fill-rule="evenodd" clip-rule="evenodd" d="M44.6553 17.8023C41.4967 17.8023 38.9255 15.6205 38.9255 12.9401C38.9255 10.2598 41.4967 8.07797 44.6553 8.07797C47.8139 8.07797 50.385 10.2598 50.385 12.9401C50.385 15.6205 47.8139 17.8023 44.6553 17.8023ZM44.6553 10.3291C42.9593 10.3291 41.5784 11.5009 41.5784 12.9401C41.5784 14.3792 42.9593 15.5544 44.6553 15.5544C46.3512 15.5544 47.7321 14.3826 47.7321 12.9401C47.7321 11.5009 46.3512 10.3291 44.6553 10.3291Z" fill="#E60004" fill-opacity="0.88"/>
<path fill-rule="evenodd" clip-rule="evenodd" d="M74.8719 81.8026C71.7134 81.8026 69.1422 79.6208 69.1422 76.9404C69.1422 74.2601 71.7134 72.0782 74.8719 72.0782C78.0305 72.0782 80.6017 74.2601 80.6017 76.9404C80.6017 79.6208 78.0305 81.8026 74.8719 81.8026ZM74.8719 74.3294C73.176 74.3294 71.7951 75.5012 71.7951 76.9403C71.7951 78.3795 73.176 79.5513 74.8719 79.5513C76.5679 79.5513 77.9488 78.3795 77.9488 76.9403C77.9488 75.5012 76.5679 74.3294 74.8719 74.3294Z" fill="#E60004" fill-opacity="0.88"/>
<path fill-rule="evenodd" clip-rule="evenodd" d="M37.2335 40.3475C36.5022 40.3475 35.9071 39.8425 35.9071 39.222C35.9071 36.1191 38.8829 33.5973 42.5354 33.5973C43.2667 33.5973 43.8618 34.1024 43.8618 34.7229C43.8618 35.3434 43.2667 35.8485 42.5354 35.8485C40.3415 35.8485 38.5561 37.3636 38.5561 39.2253C38.5561 39.8458 37.9609 40.3508 37.2297 40.3508L37.2335 40.3475Z" fill="#E60004" fill-opacity="0.88"/>
</svg>
